# xmcd CD database file
#
# Track frame offsets:
#	150
#	5902
#	28917
#	48325
#	69650
#	81597
#	104397
#	123817
#	129602
#	152172
#	178362
#	202692
#	221217
#	244612
#
# Disc length: 3541 seconds
#
# Revision: 0
# Processed by: cddbd v1.5.1PL0 Copyright (c) Steve Scherf et al.
# Submitted via: CDex 1.51
#
DISCID=cd0dd30e
DTITLE=Sergey Sirotin - Following Robert Miles
DYEAR=1996
DGENRE=New Age
TTITLE0=Ocean
TTITLE1=On The Edge Of Time
TTITLE2=Nostalgia
TTITLE3=Diamond Star Flight
TTITLE4=Spellbound
TTITLE5=Tales Of Galaxy
TTITLE6=Crystal Rain
TTITLE7=Ocean Of Mystery
TTITLE8=Celebration
TTITLE9=By Candle Light
TTITLE10=Snow-White
TTITLE11=Mem`ries
TTITLE12=Walking Together
TTITLE13=New Dawn
EXTD=YEAR: 1996
EXTT0=
EXTT1=
EXTT2=
EXTT3=
EXTT4=
EXTT5=
EXTT6=
EXTT7=
EXTT8=
EXTT9=
EXTT10=
EXTT11=
EXTT12=
EXTT13=
PLAYORDER=
